<svg xmlns="http://www.w3.org/2000/svg" viewBox="0 0 512 512"><rect width="512" height="512" rx="50" ry="50" fill="#ffffff"/><path d="M131.177-126.563L131.177 0L115.356 0L115.356-363.867L290.479-363.867L290.479-348.047L131.177-348.047L131.177-332.227L290.479-332.227L290.479-316.406L131.177-316.406L131.177-300.586L290.479-300.586L290.479-284.766L131.177-284.766L131.177-205.664L283.008-205.664L283.008-189.844L131.177-189.844L131.177-174.023L283.008-174.023L283.008-158.203L131.177-158.203L131.177-142.383L283.008-142.383L283.008-126.563L131.177-126.563ZM99.536-363.867L99.536 0L83.716 0L83.716-363.867L99.536-363.867ZM67.896-363.867L67.896 0L52.075 0L52.075-363.867L67.896-363.867ZM36.255-363.867L36.255 0L20.435 0L20.435-363.867L36.255-363.867Z" fill="#000000" transform="translate(100.54299736022949, 437.9335021972656)"/></svg>